<?xml version="1.0" encoding="UTF-8"?>
<svg version="1.1" xmlns="http://www.w3.org/2000/svg" width="108" height="108">
<path d="M0 0 C35.64 0 71.28 0 108 0 C108 35.64 108 71.28 108 108 C72.36 108 36.72 108 0 108 C0 72.36 0 36.72 0 0 Z " fill="#272727" transform="translate(0,0)"/>
<path d="M0 0 C7 0 7 0 8.77734375 1.53125 C9.16019531 2.1809375 9.54304688 2.830625 9.9375 3.5 C10.33839844 4.1496875 10.73929688 4.799375 11.15234375 5.46875 C11.43207031 5.9740625 11.71179687 6.479375 12 7 C12.33 6.34 12.66 5.68 13 5 C15.31 5 17.62 5 20 5 C20.33 5.66 20.66 6.32 21 7 C21.33 4.69 21.66 2.38 22 0 C24.64 0 27.28 0 30 0 C30.01458252 0.61520508 30.02916504 1.23041016 30.04418945 1.86425781 C30.11880577 4.66012854 30.2154198 7.45482287 30.3125 10.25 C30.33505859 11.21808594 30.35761719 12.18617187 30.38085938 13.18359375 C30.4340332 14.58544922 30.4340332 14.58544922 30.48828125 16.015625 C30.51446533 16.87446289 30.54064941 17.73330078 30.56762695 18.61816406 C30.90676572 21.49716497 30.90676572 21.49716497 34 25 C34.33 18.4 34.66 11.8 35 5 C37.31 5 39.62 5 42 5 C42 16.22 42 27.44 42 39 C39.69 39 37.38 39 35 39 C32.5625 36 32.5625 36 31 33 C30.67 33.66 30.34 34.32 30 35 C26.625 35.1875 26.625 35.1875 23 35 C22.34 34.01 21.68 33.02 21 32 C20.67 34.31 20.34 36.62 20 39 C17.69 39 15.38 39 13 39 C12.97421875 37.69804688 12.9484375 36.39609375 12.921875 35.0546875 C12.86557299 33.32809244 12.80822613 31.60153124 12.75 29.875 C12.73582031 29.0190625 12.72164062 28.163125 12.70703125 27.28125 C12.67480469 26.44335938 12.64257812 25.60546875 12.609375 24.7421875 C12.58842773 23.9776123 12.56748047 23.21303711 12.54589844 22.42529297 C11.96591177 19.17222662 11.96591177 19.17222662 8 14 C7.67 20.93 7.34 27.86 7 35 C4.69 35 2.38 35 0 35 C0 23.45 0 11.9 0 0 Z " fill="#707070" transform="translate(35,36)"/>
<path d="M0 0 C7 0 7 0 8.99609375 1.6171875 C12.78964314 7.55938682 13.79071774 11.98604083 13 19 C11.35 17.35 9.7 15.7 8 14 C7.67 20.93 7.34 27.86 7 35 C4.69 35 2.38 35 0 35 C0 23.45 0 11.9 0 0 Z " fill="#F7F7F7" transform="translate(35,36)"/>
<path d="M0 0 C3.375 -0.1875 3.375 -0.1875 7 0 C9.42130331 3.63195496 9.21022785 5.38349348 9.125 9.6875 C9.10695313 10.86699219 9.08890625 12.04648437 9.0703125 13.26171875 C9.03550781 14.61716797 9.03550781 14.61716797 9 16 C8.67 16 8.34 16 8 16 C7.67 21.94 7.34 27.88 7 34 C4.69 34 2.38 34 0 34 C-1.60134567 4.80403701 -1.60134567 4.80403701 0 0 Z " fill="#6B6B6B" transform="translate(48,41)"/>
<path d="M0 0 C2.31 0 4.62 0 7 0 C7 11.22 7 22.44 7 34 C4.69 34 2.38 34 0 34 C-2.28062828 30.57905758 -2.21925007 29.31812778 -2.125 25.3125 C-2.10695312 24.31863281 -2.08890625 23.32476562 -2.0703125 22.30078125 C-2.04710937 21.54152344 -2.02390625 20.78226563 -2 20 C-1.67 20 -1.34 20 -1 20 C-0.67 13.4 -0.34 6.8 0 0 Z " fill="#F8F8F8" transform="translate(57,36)"/>
</svg>
